# xmcd
#
# Track frame offsets:
#	180
#	17923
#	35796
#	53357
#	67691
#	80373
#	94723
#	111039
#	124992
#	136393
#	150403
#
# Disc length: 2190 seconds
#
# Revision: 1
# Processed by: cddbd v1.5.2PL0 Copyright (c) Steve Scherf et al.
# Submitted via: audiograbber 1.83.01
#
DISCID=82088c0b
DTITLE=Misty Dawn - Sings Ozark Mountain Country
DYEAR=1997
DGENRE=Country
TTITLE0=Lonely moved in
TTITLE1=Brand new start
TTITLE2=I just used him
TTITLE3=Home
TTITLE4=I got the lonesome blues
TTITLE5=The end time
TTITLE6=Stolen moments
TTITLE7=You won't even be a memory
TTITLE8=Ode to the flying squirrel
TTITLE9=I'll go on pretending
TTITLE10=Memories
EXTD=
EXTT0=
EXTT1=
EXTT2=
EXTT3=
EXTT4=
EXTT5=
EXTT6=
EXTT7=
EXTT8=
EXTT9=
EXTT10=
PLAYORDER=
